<?xml version="1.0" encoding="UTF-8" standalone="no"?>
<!-- Created with Inkscape (http://www.inkscape.org/) -->

<svg
   width="32"
   height="32"
   viewBox="0 0 8.4666668 8.4666668"
   version="1.1"
   id="svg1"
   xml:space="preserve"
   inkscape:version="1.4.3 (0d15f75, 2025-12-25)"
   sodipodi:docname="icon.svg"
   inkscape:export-filename="icon-512.png"
   inkscape:export-xdpi="96.000008"
   inkscape:export-ydpi="96.000008"
   xmlns:inkscape="http://www.inkscape.org/namespaces/inkscape"
   xmlns:sodipodi="http://sodipodi.sourceforge.net/DTD/sodipodi-0.dtd"
   xmlns:xlink="http://www.w3.org/1999/xlink"
   xmlns="http://www.w3.org/2000/svg"
   xmlns:svg="http://www.w3.org/2000/svg"><sodipodi:namedview
     id="namedview1"
     pagecolor="#ffffff"
     bordercolor="#000000"
     borderopacity="0.25"
     inkscape:showpageshadow="false"
     inkscape:pageopacity="0.0"
     inkscape:pagecheckerboard="0"
     inkscape:deskcolor="#d1d1d1"
     inkscape:document-units="px"
     showborder="true"
     borderlayer="false"
     inkscape:zoom="1.1823422"
     inkscape:cx="-84.577884"
     inkscape:cy="398.78472"
     inkscape:window-width="3440"
     inkscape:window-height="1348"
     inkscape:window-x="0"
     inkscape:window-y="0"
     inkscape:window-maximized="1"
     inkscape:current-layer="svg1"
     showguides="true" /><defs
     id="defs1"><linearGradient
       id="linearGradient18"
       inkscape:collect="always"><stop
         style="stop-color:#027bfe;stop-opacity:1;"
         offset="0"
         id="stop18" /><stop
         style="stop-color:#cee6fe;stop-opacity:1;"
         offset="1"
         id="stop19" /></linearGradient><linearGradient
       id="linearGradient730"
       x1="68.037544"
       y1="8.3417664"
       x2="67.430557"
       y2="126.69706"
       gradientUnits="userSpaceOnUse"
       gradientTransform="matrix(0.95555547,0,0,0.95555547,3.0103728,3.0103704)"><stop
         id="stop723"
         offset="0%"
         stop-color="red" /><stop
         id="stop724"
         offset="14.29%"
         stop-color="orange" /><stop
         id="stop725"
         offset="28.57%"
         stop-color="yellow" /><stop
         id="stop726"
         offset="42.86%"
         stop-color="green" /><stop
         id="stop727"
         offset="57.14%"
         stop-color="blue" /><stop
         id="stop728"
         offset="71.43%"
         stop-color="indigo" /><stop
         id="stop729"
         offset="85.87%"
         stop-color="violet" /><stop
         id="stop730"
         offset="100%"
         stop-color="red" /></linearGradient><filter
       style="color-interpolation-filters:sRGB"
       inkscape:label="Drop Shadow"
       id="filter14"
       x="-0.035448521"
       y="-0.035433069"
       width="1.070897"
       height="1.0708661"><feFlood
         result="flood"
         in="SourceGraphic"
         flood-opacity="1.000000"
         flood-color="rgb(0,0,0)"
         id="feFlood13" /><feGaussianBlur
         result="blur"
         in="SourceGraphic"
         stdDeviation="2.000000"
         id="feGaussianBlur13" /><feOffset
         result="offset"
         in="blur"
         dx="0.000000"
         dy="-0.000000"
         id="feOffset13" /><feComposite
         result="comp1"
         operator="in"
         in="flood"
         in2="offset"
         id="feComposite13" /><feComposite
         result="comp2"
         operator="over"
         in="SourceGraphic"
         in2="comp1"
         id="feComposite14" /></filter><linearGradient
       inkscape:collect="always"
       xlink:href="#linearGradient18"
       id="linearGradient19"
       x1="1699"
       y1="4543.2236"
       x2="4008.8855"
       y2="7483.1514"
       gradientUnits="userSpaceOnUse"
       gradientTransform="matrix(0.00255847,0,0,-0.00255847,-2.314924,19.285961)" /></defs><path
     d="M 2.8659778,0.14092999 C 2.5154674,0.18954092 2.2596204,0.37630923 2.1137876,0.6858841 l -0.06652,0.14071585 -0.00768,1.73975955 -0.00768,1.7397596 H 2.3133482 2.5947799 L 2.6024553,2.694283 C 2.6101308,1.1029147 2.6101308,1.0824469 2.6638586,0.98010815 2.802016,0.72170268 2.8429515,0.71402727 3.8561056,0.7114688 h 0.8366197 l 0.00768,1.1334022 0.00768,1.1334022 0.06652,0.125365 c 0.079313,0.1586252 0.2200284,0.260964 0.4042382,0.2942241 0.076754,0.015351 0.5807727,0.025585 1.1564285,0.025585 H 7.3561015 V 5.065985 c 0,1.5453159 -0.00512,1.6502132 -0.048611,1.747435 -0.053737,0.1176894 -0.1381662,0.2021189 -0.240505,0.2404959 -0.048611,0.017909 -0.4989017,0.028143 -1.3201705,0.028143 H 4.5008401 L 4.4547881,7.2278919 C 4.4292031,7.3097629 4.3754751,7.4428034 4.33454,7.5221159 L 4.260344,7.6705072 h 1.4046 c 0.9440755,0 1.4506525,-0.010234 1.5427574,-0.028143 C 7.4788992,7.5835192 7.6989276,7.4223356 7.8140587,7.1946318 7.9419822,6.9464602 7.9470992,6.8569137 7.9394238,4.833164 7.9317484,2.7480109 7.9419822,2.8784929 7.7628893,2.617529 7.6477582,2.4486699 5.6265669,0.39933546 5.4730587,0.29699666 5.3963046,0.24326879 5.2888488,0.18698245 5.2376794,0.17163163 5.1711592,0.1486054 4.8232073,0.13837152 4.042874,0.13325458 c -0.603799,-0.002558 -1.1334023,0 -1.1768962,0.007675 z M 6.2866521,2.8554667 C 5.4449155,2.8605836 5.3476936,2.8580251 5.3041997,2.8196481 5.2607057,2.7787126 5.2581472,2.7173093 5.2581472,1.8141694 l 0.00256,-0.96198475 0.979894,0.99780325 0.979894,0.9978034 z"
     id="path1-9-1"
     style="fill:url(#linearGradient19);fill-opacity:1;stroke:none;stroke-width:0.00255847" /><path
     d="M 2.0600597,8.3210821 C 1.6558214,8.2571204 1.3411296,8.0933783 1.0469056,7.7965958 0.7040706,7.4537608 0.5249777,7.0239378 0.5249777,6.5429455 c 0,-0.8084766 0.5603049,-1.5274066 1.3457552,-1.7269673 C 2.1112291,4.7545749 2.4873242,4.749458 2.720145,4.8031859 3.7358576,5.043682 4.337098,6.110564 4.0198477,7.1083673 3.8458718,7.6533214 3.3239439,8.1419892 2.7687559,8.2801466 2.5768706,8.331316 2.2365941,8.3492253 2.0600597,8.3210821 Z M 2.5001165,7.5612165 C 2.9939013,7.1211597 3.2804499,6.8448449 3.31371,6.7808832 3.3469701,6.714363 3.3469701,6.6964537 3.3111515,6.6376089 3.2599821,6.5429455 3.1704357,6.5020099 3.0860062,6.5327116 3.0501876,6.5480624 2.9094717,6.6683105 2.7738728,6.8013509 L 2.5282597,7.0469641 2.5410521,6.3536187 C 2.5538444,5.5937531 2.546169,5.5349083 2.4131286,5.4658296 2.3286991,5.4223356 2.2545034,5.4376864 2.1700739,5.5144405 2.1112291,5.5656099 2.1112291,5.5707269 2.1112291,6.3101247 V 7.0546395 L 1.8451482,6.7885586 C 1.6148859,6.5582963 1.566275,6.5224777 1.4971963,6.5250362 c -0.130482,0.00256 -0.2174699,0.1074557 -0.1893268,0.2225869 0.010234,0.043494 0.1867683,0.2225869 0.473317,0.4886677 0.5219279,0.4809924 0.5372787,0.4861093 0.71893,0.3249257 z"
     id="path2-3"
     style="fill:#027bfe;fill-opacity:1;stroke:none;stroke-width:0.00255847" /></svg>
