<?xml version="1.0" encoding="UTF-8" standalone="no"?>
<!-- Created with Inkscape (http://www.inkscape.org/) -->

<svg
   width="511.99997"
   height="511.99997"
   viewBox="0 0 135.46666 135.46666"
   version="1.1"
   id="svg1"
   xml:space="preserve"
   inkscape:version="1.3.2 (091e20e, 2023-11-25)"
   sodipodi:docname="icon.svg"
   inkscape:export-filename="icon-512.png"
   inkscape:export-xdpi="96.000008"
   inkscape:export-ydpi="96.000008"
   xmlns:inkscape="http://www.inkscape.org/namespaces/inkscape"
   xmlns:sodipodi="http://sodipodi.sourceforge.net/DTD/sodipodi-0.dtd"
   xmlns:xlink="http://www.w3.org/1999/xlink"
   xmlns="http://www.w3.org/2000/svg"
   xmlns:svg="http://www.w3.org/2000/svg"><sodipodi:namedview
     id="namedview1"
     pagecolor="#ffffff"
     bordercolor="#000000"
     borderopacity="0.25"
     inkscape:showpageshadow="false"
     inkscape:pageopacity="0.0"
     inkscape:pagecheckerboard="0"
     inkscape:deskcolor="#d1d1d1"
     inkscape:document-units="px"
     showborder="true"
     borderlayer="false"
     inkscape:zoom="0.8815448"
     inkscape:cx="-110.03411"
     inkscape:cy="390.79125"
     inkscape:window-width="2544"
     inkscape:window-height="1184"
     inkscape:window-x="415"
     inkscape:window-y="37"
     inkscape:window-maximized="0"
     inkscape:current-layer="svg1"
     showguides="true" /><defs
     id="defs1"><linearGradient
       id="linearGradient18"
       inkscape:collect="always"><stop
         style="stop-color:#027bfe;stop-opacity:1;"
         offset="0"
         id="stop18" /><stop
         style="stop-color:#cee6fe;stop-opacity:1;"
         offset="1"
         id="stop19" /></linearGradient><linearGradient
       id="linearGradient730"
       x1="68.037544"
       y1="8.3417664"
       x2="67.430557"
       y2="126.69706"
       gradientUnits="userSpaceOnUse"
       gradientTransform="matrix(0.95555547,0,0,0.95555547,3.0103728,3.0103704)"><stop
         id="stop723"
         offset="0%"
         stop-color="red" /><stop
         id="stop724"
         offset="14.29%"
         stop-color="orange" /><stop
         id="stop725"
         offset="28.57%"
         stop-color="yellow" /><stop
         id="stop726"
         offset="42.86%"
         stop-color="green" /><stop
         id="stop727"
         offset="57.14%"
         stop-color="blue" /><stop
         id="stop728"
         offset="71.43%"
         stop-color="indigo" /><stop
         id="stop729"
         offset="85.87%"
         stop-color="violet" /><stop
         id="stop730"
         offset="100%"
         stop-color="red" /></linearGradient><filter
       style="color-interpolation-filters:sRGB;"
       inkscape:label="Drop Shadow"
       id="filter14"
       x="-0.035448522"
       y="-0.03543307"
       width="1.070897"
       height="1.0708661"><feFlood
         result="flood"
         in="SourceGraphic"
         flood-opacity="1.000000"
         flood-color="rgb(0,0,0)"
         id="feFlood13" /><feGaussianBlur
         result="blur"
         in="SourceGraphic"
         stdDeviation="2.000000"
         id="feGaussianBlur13" /><feOffset
         result="offset"
         in="blur"
         dx="0.000000"
         dy="-0.000000"
         id="feOffset13" /><feComposite
         result="comp1"
         operator="in"
         in="flood"
         in2="offset"
         id="feComposite13" /><feComposite
         result="comp2"
         operator="over"
         in="SourceGraphic"
         in2="comp1"
         id="feComposite14" /></filter><linearGradient
       inkscape:collect="always"
       xlink:href="#linearGradient18"
       id="linearGradient19"
       x1="1699"
       y1="4543.2236"
       x2="4008.8855"
       y2="7483.1514"
       gradientUnits="userSpaceOnUse" /></defs><g
     transform="matrix(0.0392024,0,0,-0.0392024,-32.602967,298.37865)"
     fill="#000000"
     stroke="none"
     id="g2"><path
       d="m 2025,7483 c -137,-19 -237,-92 -294,-213 l -26,-55 -3,-680 -3,-680 h 110 110 l 3,630 c 3,622 3,630 24,670 54,101 70,104 466,105 h 327 l 3,-443 3,-443 26,-49 c 31,-62 86,-102 158,-115 30,-6 227,-10 452,-10 h 399 v -642 c 0,-604 -2,-645 -19,-683 -21,-46 -54,-79 -94,-94 -19,-7 -195,-11 -516,-11 h -487 l -18,-57 c -10,-32 -31,-84 -47,-115 l -29,-58 h 549 c 369,0 567,4 603,11 106,23 192,86 237,175 50,97 52,132 49,923 -3,815 1,764 -69,866 -45,66 -835,867 -895,907 -30,21 -72,43 -92,49 -26,9 -162,13 -467,15 -236,1 -443,0 -460,-3 z M 3362,6422 c -329,-2 -367,-1 -384,14 -17,16 -18,40 -18,393 l 1,376 383,-390 383,-390 z"
       id="path1-9-1"
       style="fill:url(#linearGradient19);fill-opacity:1" /><path
       d="m 1710,4285.7172 c -158,25 -281,89 -396,205 -134,134 -204,302 -204,490 0,316 219,597 526,675 94,24 241,26 332,5 397,-94 632,-511 508,-901 -68,-213 -272,-404 -489,-458 -75,-20 -208,-27 -277,-16 z m 172,297 c 193,172 305,280 318,305 13,26 13,33 -1,56 -20,37 -55,53 -88,41 -14,-6 -69,-53 -122,-105 l -96,-96 5,271 c 5,297 2,320 -50,347 -33,17 -62,11 -95,-19 -23,-20 -23,-22 -23,-311 v -291 l -104,104 c -90,90 -109,104 -136,103 -51,-1 -85,-42 -74,-87 4,-17 73,-87 185,-191 204,-188 210,-190 281,-127 z"
       id="path2-3"
       style="fill:#027bfe;fill-opacity:1" /></g></svg>
